<svg xmlns="http://www.w3.org/2000/svg" width="1783.324" height="847.706" viewBox="0 0 1783.324 847.706">
  <g id="Gruppe_39" data-name="Gruppe 39" transform="translate(-103.362 -170.32)">
    <g id="Gruppe_31" data-name="Gruppe 31" transform="translate(284 -137)" opacity="0.163">
      <g id="Gruppe_32" data-name="Gruppe 32" transform="translate(678.224 722.242)">
        <g id="np_user_418550_000000" transform="translate(491.075 96.879)" opacity="0.5">
          <path id="np_user_418550_000000-2" data-name="np_user_418550_000000" d="M33.836,26.217A10.137,10.137,0,0,0,37.38,18.55c0-4.238-3.006-6.55-6.743-6.55s-6.743,2.312-6.743,6.55a10.071,10.071,0,0,0,3.544,7.667c-5.162,1.156-8.939,4.97-8.939,8.516,0,4.238,5.434,6.55,12.137,6.55s12.137-2.312,12.137-6.55c0-3.544-3.776-7.36-8.939-8.516Z" transform="translate(-18.5 -12)" fill="#a1a1a2"/>
        </g>
        <g id="np_user_418550_000000-3" data-name="np_user_418550_000000" transform="translate(613.446 111.082)" opacity="0.5">
          <path id="np_user_418550_000000-4" data-name="np_user_418550_000000" d="M33.836,26.217A10.137,10.137,0,0,0,37.38,18.55c0-4.238-3.006-6.55-6.743-6.55s-6.743,2.312-6.743,6.55a10.071,10.071,0,0,0,3.544,7.667c-5.162,1.156-8.939,4.97-8.939,8.516,0,4.238,5.434,6.55,12.137,6.55s12.137-2.312,12.137-6.55c0-3.544-3.776-7.36-8.939-8.516Z" transform="translate(-18.5 -12)" fill="#a1a1a2"/>
        </g>
        <g id="np_user_418550_000000-5" data-name="np_user_418550_000000" transform="translate(826.532 -27.146)" opacity="0.5">
          <path id="np_user_418550_000000-6" data-name="np_user_418550_000000" d="M33.836,26.217A10.137,10.137,0,0,0,37.38,18.55c0-4.238-3.006-6.55-6.743-6.55s-6.743,2.312-6.743,6.55a10.071,10.071,0,0,0,3.544,7.667c-5.162,1.156-8.939,4.97-8.939,8.516,0,4.238,5.434,6.55,12.137,6.55s12.137-2.312,12.137-6.55c0-3.544-3.776-7.36-8.939-8.516Z" transform="translate(-18.5 -12)" fill="#a1a1a2"/>
        </g>
        <g id="np_plus_1735320_000000" transform="translate(703.223 227.731)" opacity="0.5">
          <path id="np_plus_1735320_000000-2" data-name="np_plus_1735320_000000" d="M20.063,0A20.063,20.063,0,1,1,0,20.063,20.061,20.061,0,0,1,20.063,0ZM22.4,17.726V9.082a2.337,2.337,0,0,0-4.674,0v8.644H9.081a2.337,2.337,0,0,0,0,4.674h8.644v8.644a2.337,2.337,0,0,0,4.674,0V22.4h8.644a2.337,2.337,0,0,0,0-4.674Z" fill="#a1a1a2"/>
        </g>
        <g id="Komponente_3_196" data-name="Komponente 3 – 196" transform="translate(637.497 -45.789)" opacity="0.5">
          <rect id="Rechteck_10" data-name="Rechteck 10" width="35.85" height="24.28" rx="2" fill="#a1a1a2"/>
          <path id="Polygon_1" data-name="Polygon 1" d="M7.856,0l7.856,12.569H0Z" transform="translate(25.78 33.707) rotate(180)" fill="#a1a1a2"/>
        </g>
        <g id="np_user_418550_000000-7" data-name="np_user_418550_000000" transform="translate(845.545 193.298)" opacity="0.5">
          <path id="np_user_418550_000000-8" data-name="np_user_418550_000000" d="M33.836,26.217A10.137,10.137,0,0,0,37.38,18.55c0-4.238-3.006-6.55-6.743-6.55s-6.743,2.312-6.743,6.55a10.071,10.071,0,0,0,3.544,7.667c-5.162,1.156-8.939,4.97-8.939,8.516,0,4.238,5.434,6.55,12.137,6.55s12.137-2.312,12.137-6.55c0-3.544-3.776-7.36-8.939-8.516Z" transform="translate(-18.5 -12)" fill="#a1a1a2"/>
        </g>
        <g id="np_user_418550_000000-9" data-name="np_user_418550_000000" transform="translate(534.232 227.501)" opacity="0.5">
          <path id="np_user_418550_000000-10" data-name="np_user_418550_000000" d="M38.89,31.072A13.648,13.648,0,0,0,43.6,20.787c0-5.686-4-8.787-8.965-8.787s-8.965,3.1-8.965,8.787a13.559,13.559,0,0,0,4.713,10.285C23.521,32.623,18.5,37.739,18.5,42.5c0,5.686,7.224,8.787,16.137,8.787s16.137-3.1,16.137-8.787c0-4.755-5.021-9.873-11.885-11.424Z" transform="translate(-18.5 -12)" fill="#a1a1a2"/>
        </g>
        <g id="np_plus_1735320_000000-3" data-name="np_plus_1735320_000000" transform="translate(906.338 92.639)" opacity="0.5">
          <path id="np_plus_1735320_000000-4" data-name="np_plus_1735320_000000" d="M9.063,0A9.063,9.063,0,1,1,0,9.063,9.062,9.062,0,0,1,9.063,0Zm1.056,8.007V4.1a1.056,1.056,0,0,0-2.111,0v3.9H4.1a1.056,1.056,0,0,0,0,2.111h3.9v3.9a1.056,1.056,0,1,0,2.111,0v-3.9h3.9a1.056,1.056,0,0,0,0-2.111Z" fill="#a1a1a2"/>
        </g>
        <g id="np_user_418550_000000-11" data-name="np_user_418550_000000" transform="translate(147 83.979)" opacity="0.5">
          <path id="np_user_418550_000000-12" data-name="np_user_418550_000000" d="M39.521,31.557A13.964,13.964,0,0,0,44.38,21.011c0-5.83-4.12-9.011-9.243-9.011s-9.243,3.18-9.243,9.011a13.874,13.874,0,0,0,4.859,10.547C23.677,33.148,18.5,38.394,18.5,43.272c0,5.83,7.448,9.011,16.637,9.011s16.637-3.18,16.637-9.011c0-4.876-5.176-10.125-12.253-11.715Z" transform="translate(-18.5 -12)" fill="#a1a1a2"/>
        </g>
        <g id="np_plus_1735320_000000-5" data-name="np_plus_1735320_000000" transform="translate(23.139 247.673)" opacity="0.5">
          <path id="np_plus_1735320_000000-6" data-name="np_plus_1735320_000000" d="M24.73,0A24.73,24.73,0,1,1,0,24.73,24.728,24.728,0,0,1,24.73,0Zm2.881,21.849V11.194a2.881,2.881,0,0,0-5.761,0V21.849H11.194a2.881,2.881,0,1,0,0,5.761H21.849V38.266a2.881,2.881,0,1,0,5.761,0V27.611H38.266a2.881,2.881,0,0,0,0-5.761Z" fill="#a1a1a2"/>
        </g>
        <g id="np_user_418550_000000-13" data-name="np_user_418550_000000" transform="translate(316.074 193.633)" opacity="0.5">
          <path id="np_user_418550_000000-14" data-name="np_user_418550_000000" d="M33.836,26.217A10.137,10.137,0,0,0,37.38,18.55c0-4.238-3.006-6.55-6.743-6.55s-6.743,2.312-6.743,6.55a10.071,10.071,0,0,0,3.544,7.667c-5.162,1.156-8.939,4.97-8.939,8.516,0,4.238,5.434,6.55,12.137,6.55s12.137-2.312,12.137-6.55c0-3.544-3.776-7.36-8.939-8.516Z" transform="translate(-18.5 -12)" fill="#a1a1a2"/>
        </g>
        <g id="Komponente_3_198" data-name="Komponente 3 – 198" transform="translate(258.186)" opacity="0.5">
          <rect id="Rechteck_10-2" data-name="Rechteck 10" width="40.85" height="28.28" rx="2" fill="#a1a1a2"/>
          <path id="Polygon_1-2" data-name="Polygon 1" d="M7.856,0l7.856,12.569H0Z" transform="translate(28.28 37.707) rotate(180)" fill="#a1a1a2"/>
        </g>
        <g id="np_plus_1735320_000000-7" data-name="np_plus_1735320_000000" transform="translate(752.671 -159.401)" opacity="0.5">
          <path id="np_plus_1735320_000000-8" data-name="np_plus_1735320_000000" d="M11.063,0A11.063,11.063,0,1,1,0,11.063,11.062,11.062,0,0,1,11.063,0Zm1.289,9.774V5.008a1.289,1.289,0,0,0-2.577,0V9.774H5.008a1.289,1.289,0,0,0,0,2.577H9.774v4.766a1.289,1.289,0,1,0,2.577,0V12.351h4.766a1.289,1.289,0,1,0,0-2.577Z" fill="#a1a1a2"/>
        </g>
        <g id="Komponente_3_199" data-name="Komponente 3 – 199" transform="translate(282.186 376)" opacity="0.5">
          <rect id="Rechteck_10-3" data-name="Rechteck 10" width="51.85" height="38.28" rx="2" fill="#a1a1a2"/>
          <path id="Polygon_1-3" data-name="Polygon 1" d="M7.856,0l7.856,12.569H0Z" transform="translate(33.78 47.707) rotate(180)" fill="#a1a1a2"/>
        </g>
        <g id="np_user_418550_000000-15" data-name="np_user_418550_000000" transform="translate(786.232 370.501)" opacity="0.5">
          <path id="np_user_418550_000000-16" data-name="np_user_418550_000000" d="M51.525,42.238c4.564-3.525,7.633-10.081,7.633-16.307C59.158,16.917,52.685,12,44.637,12S30.117,16.917,30.117,25.932c0,6.23,3.069,12.866,7.633,16.307C26.633,44.7,18.5,52.808,18.5,60.351c0,9.015,11.7,13.932,26.137,13.932s26.137-4.917,26.137-13.932c0-7.539-8.132-15.654-19.249-18.113Z" transform="translate(-18.5 -12)" fill="#a1a1a2"/>
        </g>
      </g>
      <g id="Gruppe_24" data-name="Gruppe 24" transform="translate(-203.776 677.242)">
        <g id="np_user_418550_000000-17" data-name="np_user_418550_000000" transform="translate(491.075 96.879)" opacity="0.5">
          <path id="np_user_418550_000000-18" data-name="np_user_418550_000000" d="M33.836,26.217A10.137,10.137,0,0,0,37.38,18.55c0-4.238-3.006-6.55-6.743-6.55s-6.743,2.312-6.743,6.55a10.071,10.071,0,0,0,3.544,7.667c-5.162,1.156-8.939,4.97-8.939,8.516,0,4.238,5.434,6.55,12.137,6.55s12.137-2.312,12.137-6.55c0-3.544-3.776-7.36-8.939-8.516Z" transform="translate(-18.5 -12)" fill="#a1a1a2"/>
        </g>
        <g id="np_user_418550_000000-19" data-name="np_user_418550_000000" transform="translate(613.446 111.082)" opacity="0.5">
          <path id="np_user_418550_000000-20" data-name="np_user_418550_000000" d="M33.836,26.217A10.137,10.137,0,0,0,37.38,18.55c0-4.238-3.006-6.55-6.743-6.55s-6.743,2.312-6.743,6.55a10.071,10.071,0,0,0,3.544,7.667c-5.162,1.156-8.939,4.97-8.939,8.516,0,4.238,5.434,6.55,12.137,6.55s12.137-2.312,12.137-6.55c0-3.544-3.776-7.36-8.939-8.516Z" transform="translate(-18.5 -12)" fill="#a1a1a2"/>
        </g>
        <g id="np_user_418550_000000-21" data-name="np_user_418550_000000" transform="translate(826.532 -27.146)" opacity="0.5">
          <path id="np_user_418550_000000-22" data-name="np_user_418550_000000" d="M33.836,26.217A10.137,10.137,0,0,0,37.38,18.55c0-4.238-3.006-6.55-6.743-6.55s-6.743,2.312-6.743,6.55a10.071,10.071,0,0,0,3.544,7.667c-5.162,1.156-8.939,4.97-8.939,8.516,0,4.238,5.434,6.55,12.137,6.55s12.137-2.312,12.137-6.55c0-3.544-3.776-7.36-8.939-8.516Z" transform="translate(-18.5 -12)" fill="#a1a1a2"/>
        </g>
        <g id="np_plus_1735320_000000-9" data-name="np_plus_1735320_000000" transform="translate(703.223 227.731)" opacity="0.5">
          <path id="np_plus_1735320_000000-10" data-name="np_plus_1735320_000000" d="M20.063,0A20.063,20.063,0,1,1,0,20.063,20.061,20.061,0,0,1,20.063,0ZM22.4,17.726V9.082a2.337,2.337,0,0,0-4.674,0v8.644H9.081a2.337,2.337,0,0,0,0,4.674h8.644v8.644a2.337,2.337,0,0,0,4.674,0V22.4h8.644a2.337,2.337,0,0,0,0-4.674Z" fill="#a1a1a2"/>
        </g>
        <g id="Komponente_3_175" data-name="Komponente 3 – 175" transform="translate(637.497 -45.789)" opacity="0.5">
          <rect id="Rechteck_10-4" data-name="Rechteck 10" width="35.85" height="24.28" rx="2" fill="#a1a1a2"/>
          <path id="Polygon_1-4" data-name="Polygon 1" d="M7.856,0l7.856,12.569H0Z" transform="translate(25.78 33.707) rotate(180)" fill="#a1a1a2"/>
        </g>
        <g id="np_user_418550_000000-23" data-name="np_user_418550_000000" transform="translate(845.545 193.298)" opacity="0.5">
          <path id="np_user_418550_000000-24" data-name="np_user_418550_000000" d="M33.836,26.217A10.137,10.137,0,0,0,37.38,18.55c0-4.238-3.006-6.55-6.743-6.55s-6.743,2.312-6.743,6.55a10.071,10.071,0,0,0,3.544,7.667c-5.162,1.156-8.939,4.97-8.939,8.516,0,4.238,5.434,6.55,12.137,6.55s12.137-2.312,12.137-6.55c0-3.544-3.776-7.36-8.939-8.516Z" transform="translate(-18.5 -12)" fill="#a1a1a2"/>
        </g>
        <g id="np_user_418550_000000-25" data-name="np_user_418550_000000" transform="translate(534.232 227.501)" opacity="0.5">
          <path id="np_user_418550_000000-26" data-name="np_user_418550_000000" d="M38.89,31.072A13.648,13.648,0,0,0,43.6,20.787c0-5.686-4-8.787-8.965-8.787s-8.965,3.1-8.965,8.787a13.559,13.559,0,0,0,4.713,10.285C23.521,32.623,18.5,37.739,18.5,42.5c0,5.686,7.224,8.787,16.137,8.787s16.137-3.1,16.137-8.787c0-4.755-5.021-9.873-11.885-11.424Z" transform="translate(-18.5 -12)" fill="#a1a1a2"/>
        </g>
        <g id="np_plus_1735320_000000-11" data-name="np_plus_1735320_000000" transform="translate(906.338 92.639)" opacity="0.5">
          <path id="np_plus_1735320_000000-12" data-name="np_plus_1735320_000000" d="M9.063,0A9.063,9.063,0,1,1,0,9.063,9.062,9.062,0,0,1,9.063,0Zm1.056,8.007V4.1a1.056,1.056,0,0,0-2.111,0v3.9H4.1a1.056,1.056,0,0,0,0,2.111h3.9v3.9a1.056,1.056,0,1,0,2.111,0v-3.9h3.9a1.056,1.056,0,0,0,0-2.111Z" fill="#a1a1a2"/>
        </g>
        <g id="np_user_418550_000000-27" data-name="np_user_418550_000000" transform="translate(147 83.979)" opacity="0.5">
          <path id="np_user_418550_000000-28" data-name="np_user_418550_000000" d="M39.521,31.557A13.964,13.964,0,0,0,44.38,21.011c0-5.83-4.12-9.011-9.243-9.011s-9.243,3.18-9.243,9.011a13.874,13.874,0,0,0,4.859,10.547C23.677,33.148,18.5,38.394,18.5,43.272c0,5.83,7.448,9.011,16.637,9.011s16.637-3.18,16.637-9.011c0-4.876-5.176-10.125-12.253-11.715Z" transform="translate(-18.5 -12)" fill="#a1a1a2"/>
        </g>
        <g id="np_plus_1735320_000000-13" data-name="np_plus_1735320_000000" transform="translate(23.139 220.673)" opacity="0.5">
          <path id="np_plus_1735320_000000-14" data-name="np_plus_1735320_000000" d="M38.23,0A38.23,38.23,0,1,1,0,38.23,38.227,38.227,0,0,1,38.23,0Zm4.453,33.777V17.305a4.453,4.453,0,0,0-8.906,0V33.777H17.3a4.453,4.453,0,1,0,0,8.906H33.777V59.155a4.453,4.453,0,1,0,8.906,0V42.683H59.155a4.453,4.453,0,1,0,0-8.906Z" fill="#a1a1a2"/>
        </g>
        <g id="np_user_418550_000000-29" data-name="np_user_418550_000000" transform="translate(1357.335 149.052)" opacity="0.5">
          <path id="np_user_418550_000000-30" data-name="np_user_418550_000000" d="M33.836,26.217A10.137,10.137,0,0,0,37.38,18.55c0-4.238-3.006-6.55-6.743-6.55s-6.743,2.312-6.743,6.55a10.071,10.071,0,0,0,3.544,7.667c-5.162,1.156-8.939,4.97-8.939,8.516,0,4.238,5.434,6.55,12.137,6.55s12.137-2.312,12.137-6.55c0-3.544-3.776-7.36-8.939-8.516Z" transform="translate(-18.5 -12)" fill="#a1a1a2"/>
        </g>
        <g id="Komponente_3_177" data-name="Komponente 3 – 177" transform="translate(1378.646 53.419)" opacity="0.5">
          <rect id="Rechteck_10-5" data-name="Rechteck 10" width="40.85" height="28.28" rx="2" fill="#a1a1a2"/>
          <path id="Polygon_1-5" data-name="Polygon 1" d="M7.856,0l7.856,12.569H0Z" transform="translate(28.28 37.707) rotate(180)" fill="#a1a1a2"/>
        </g>
        <g id="np_user_418550_000000-31" data-name="np_user_418550_000000" transform="translate(316.074 193.633)" opacity="0.5">
          <path id="np_user_418550_000000-32" data-name="np_user_418550_000000" d="M33.836,26.217A10.137,10.137,0,0,0,37.38,18.55c0-4.238-3.006-6.55-6.743-6.55s-6.743,2.312-6.743,6.55a10.071,10.071,0,0,0,3.544,7.667c-5.162,1.156-8.939,4.97-8.939,8.516,0,4.238,5.434,6.55,12.137,6.55s12.137-2.312,12.137-6.55c0-3.544-3.776-7.36-8.939-8.516Z" transform="translate(-18.5 -12)" fill="#a1a1a2"/>
        </g>
        <g id="Komponente_3_178" data-name="Komponente 3 – 178" transform="translate(258.186)" opacity="0.5">
          <rect id="Rechteck_10-6" data-name="Rechteck 10" width="40.85" height="28.28" rx="2" fill="#a1a1a2"/>
          <path id="Polygon_1-6" data-name="Polygon 1" d="M7.856,0l7.856,12.569H0Z" transform="translate(28.28 37.707) rotate(180)" fill="#a1a1a2"/>
        </g>
        <g id="np_plus_1735320_000000-15" data-name="np_plus_1735320_000000" transform="translate(752.671 -159.401)" opacity="0.5">
          <path id="np_plus_1735320_000000-16" data-name="np_plus_1735320_000000" d="M11.063,0A11.063,11.063,0,1,1,0,11.063,11.062,11.062,0,0,1,11.063,0Zm1.289,9.774V5.008a1.289,1.289,0,0,0-2.577,0V9.774H5.008a1.289,1.289,0,0,0,0,2.577H9.774v4.766a1.289,1.289,0,1,0,2.577,0V12.351h4.766a1.289,1.289,0,1,0,0-2.577Z" fill="#a1a1a2"/>
        </g>
        <g id="Komponente_3_185" data-name="Komponente 3 – 185" transform="translate(282.186 375)" opacity="0.5">
          <rect id="Rechteck_10-7" data-name="Rechteck 10" width="51.85" height="38.28" rx="2" fill="#a1a1a2"/>
          <path id="Polygon_1-7" data-name="Polygon 1" d="M7.856,0l7.856,12.569H0Z" transform="translate(33.78 47.707) rotate(180)" fill="#a1a1a2"/>
        </g>
        <g id="np_user_418550_000000-33" data-name="np_user_418550_000000" transform="translate(786.232 367.501)" opacity="0.5">
          <path id="np_user_418550_000000-34" data-name="np_user_418550_000000" d="M51.525,42.238c4.564-3.525,7.633-10.081,7.633-16.307C59.158,16.917,52.685,12,44.637,12S30.117,16.917,30.117,25.932c0,6.23,3.069,12.866,7.633,16.307C26.633,44.7,18.5,52.808,18.5,60.351c0,9.015,11.7,13.932,26.137,13.932s26.137-4.917,26.137-13.932c0-7.539-8.132-15.654-19.249-18.113Z" transform="translate(-18.5 -12)" fill="#a1a1a2"/>
        </g>
      </g>
    </g>
    <g id="Gruppe_30" data-name="Gruppe 30" transform="translate(1157 -500)" opacity="0.301">
      <g id="Gruppe_24-2" data-name="Gruppe 24" transform="translate(-15025 52)">
        <g id="np_user_418550_000000-35" data-name="np_user_418550_000000" transform="translate(15110.816 659.441)" opacity="0.5">
          <path id="np_user_418550_000000-36" data-name="np_user_418550_000000" d="M26.763,19.66a5.462,5.462,0,0,0,1.91-4.131A3.381,3.381,0,0,0,25.04,12a3.381,3.381,0,0,0-3.633,3.529,5.426,5.426,0,0,0,1.91,4.131c-2.781.623-4.816,2.678-4.816,4.588,0,2.284,2.928,3.529,6.539,3.529s6.539-1.246,6.539-3.529c0-1.91-2.035-3.966-4.816-4.588Z" transform="translate(-18.5 -12)" fill="#a1a1a2"/>
        </g>
        <g id="np_user_418550_000000-37" data-name="np_user_418550_000000" transform="translate(15176.75 667.093)" opacity="0.5">
          <path id="np_user_418550_000000-38" data-name="np_user_418550_000000" d="M26.763,19.66a5.462,5.462,0,0,0,1.91-4.131A3.381,3.381,0,0,0,25.04,12a3.381,3.381,0,0,0-3.633,3.529,5.426,5.426,0,0,0,1.91,4.131c-2.781.623-4.816,2.678-4.816,4.588,0,2.284,2.928,3.529,6.539,3.529s6.539-1.246,6.539-3.529c0-1.91-2.035-3.966-4.816-4.588Z" transform="translate(-18.5 -12)" fill="#a1a1a2"/>
        </g>
        <g id="np_user_418550_000000-39" data-name="np_user_418550_000000" transform="translate(15280.115 618.32)" opacity="0.5">
          <path id="np_user_418550_000000-40" data-name="np_user_418550_000000" d="M26.763,19.66a5.462,5.462,0,0,0,1.91-4.131A3.381,3.381,0,0,0,25.04,12a3.381,3.381,0,0,0-3.633,3.529,5.426,5.426,0,0,0,1.91,4.131c-2.781.623-4.816,2.678-4.816,4.588,0,2.284,2.928,3.529,6.539,3.529s6.539-1.246,6.539-3.529c0-1.91-2.035-3.966-4.816-4.588Z" transform="translate(-18.5 -12)" fill="#a1a1a2"/>
        </g>
        <g id="np_plus_1735320_000000-17" data-name="np_plus_1735320_000000" transform="translate(15066.271 620.831)" opacity="0.5">
          <path id="np_plus_1735320_000000-18" data-name="np_plus_1735320_000000" d="M8.385,0A8.385,8.385,0,1,1,0,8.385,8.385,8.385,0,0,1,8.385,0Zm.977,7.408V3.8a.977.977,0,0,0-1.953,0V7.408H3.8a.977.977,0,0,0,0,1.953H7.408v3.613a.977.977,0,0,0,1.953,0V9.362h3.613a.977.977,0,1,0,0-1.953Z" fill="#a1a1a2"/>
        </g>
        <g id="np_plus_1735320_000000-19" data-name="np_plus_1735320_000000" transform="translate(15139.155 629.656)" opacity="0.5">
          <path id="np_plus_1735320_000000-20" data-name="np_plus_1735320_000000" d="M8.385,0A8.385,8.385,0,1,1,0,8.385,8.385,8.385,0,0,1,8.385,0Zm.977,7.408V3.8a.977.977,0,0,0-1.953,0V7.408H3.8a.977.977,0,0,0,0,1.953H7.408v3.613a.977.977,0,0,0,1.953,0V9.362h3.613a.977.977,0,1,0,0-1.953Z" fill="#a1a1a2"/>
        </g>
        <g id="np_plus_1735320_000000-21" data-name="np_plus_1735320_000000" transform="translate(15253.18 666.109)" opacity="0.5">
          <path id="np_plus_1735320_000000-22" data-name="np_plus_1735320_000000" d="M8.385,0A8.385,8.385,0,1,1,0,8.385,8.385,8.385,0,0,1,8.385,0Zm.977,7.408V3.8a.977.977,0,0,0-1.953,0V7.408H3.8a.977.977,0,0,0,0,1.953H7.408v3.613a.977.977,0,0,0,1.953,0V9.362h3.613a.977.977,0,1,0,0-1.953Z" fill="#a1a1a2"/>
        </g>
        <g id="np_user_418550_000000-41" data-name="np_user_418550_000000" transform="translate(15277.967 688.223)" opacity="0.5">
          <path id="np_user_418550_000000-42" data-name="np_user_418550_000000" d="M26.763,19.66a5.462,5.462,0,0,0,1.91-4.131A3.381,3.381,0,0,0,25.04,12a3.381,3.381,0,0,0-3.633,3.529,5.426,5.426,0,0,0,1.91,4.131c-2.781.623-4.816,2.678-4.816,4.588,0,2.284,2.928,3.529,6.539,3.529s6.539-1.246,6.539-3.529c0-1.91-2.035-3.966-4.816-4.588Z" transform="translate(-18.5 -12)" fill="#a1a1a2"/>
        </g>
        <g id="np_user_418550_000000-43" data-name="np_user_418550_000000" transform="translate(15109.823 695.876)" opacity="0.5">
          <path id="np_user_418550_000000-44" data-name="np_user_418550_000000" d="M26.763,19.66a5.462,5.462,0,0,0,1.91-4.131A3.381,3.381,0,0,0,25.04,12a3.381,3.381,0,0,0-3.633,3.529,5.426,5.426,0,0,0,1.91,4.131c-2.781.623-4.816,2.678-4.816,4.588,0,2.284,2.928,3.529,6.539,3.529s6.539-1.246,6.539-3.529c0-1.91-2.035-3.966-4.816-4.588Z" transform="translate(-18.5 -12)" fill="#a1a1a2"/>
        </g>
        <g id="np_plus_1735320_000000-23" data-name="np_plus_1735320_000000" transform="translate(15198.982 658.438)" opacity="0.5">
          <path id="np_plus_1735320_000000-24" data-name="np_plus_1735320_000000" d="M8.385,0A8.385,8.385,0,1,1,0,8.385,8.385,8.385,0,0,1,8.385,0Zm.977,7.408V3.8a.977.977,0,0,0-1.953,0V7.408H3.8a.977.977,0,0,0,0,1.953H7.408v3.613a.977.977,0,0,0,1.953,0V9.362h3.613a.977.977,0,1,0,0-1.953Z" fill="#a1a1a2"/>
        </g>
        <g id="np_plus_1735320_000000-25" data-name="np_plus_1735320_000000" transform="translate(15386.286 649.613)" opacity="0.5">
          <path id="np_plus_1735320_000000-26" data-name="np_plus_1735320_000000" d="M8.385,0A8.385,8.385,0,1,1,0,8.385,8.385,8.385,0,0,1,8.385,0Zm.977,7.408V3.8a.977.977,0,0,0-1.953,0V7.408H3.8a.977.977,0,0,0,0,1.953H7.408v3.613a.977.977,0,0,0,1.953,0V9.362h3.613a.977.977,0,1,0,0-1.953Z" fill="#a1a1a2"/>
        </g>
        <g id="np_user_418550_000000-45" data-name="np_user_418550_000000" transform="translate(14846.224 647.102)" opacity="0.5">
          <path id="np_user_418550_000000-46" data-name="np_user_418550_000000" d="M26.763,19.66a5.462,5.462,0,0,0,1.91-4.131A3.381,3.381,0,0,0,25.04,12a3.381,3.381,0,0,0-3.633,3.529,5.426,5.426,0,0,0,1.91,4.131c-2.781.623-4.816,2.678-4.816,4.588,0,2.284,2.928,3.529,6.539,3.529s6.539-1.246,6.539-3.529c0-1.91-2.035-3.966-4.816-4.588Z" transform="translate(-18.5 -12)" fill="#a1a1a2"/>
        </g>
        <g id="np_plus_1735320_000000-27" data-name="np_plus_1735320_000000" transform="translate(14869.467 694.891)" opacity="0.5">
          <path id="np_plus_1735320_000000-28" data-name="np_plus_1735320_000000" d="M8.385,0A8.385,8.385,0,1,1,0,8.385,8.385,8.385,0,0,1,8.385,0Zm.977,7.408V3.8a.977.977,0,0,0-1.953,0V7.408H3.8a.977.977,0,0,0,0,1.953H7.408v3.613a.977.977,0,0,0,1.953,0V9.362h3.613a.977.977,0,1,0,0-1.953Z" fill="#a1a1a2"/>
        </g>
        <g id="np_user_418550_000000-47" data-name="np_user_418550_000000" transform="translate(15577.56 687.552)" opacity="0.5">
          <path id="np_user_418550_000000-48" data-name="np_user_418550_000000" d="M26.763,19.66a5.462,5.462,0,0,0,1.91-4.131A3.381,3.381,0,0,0,25.04,12a3.381,3.381,0,0,0-3.633,3.529,5.426,5.426,0,0,0,1.91,4.131c-2.781.623-4.816,2.678-4.816,4.588,0,2.284,2.928,3.529,6.539,3.529s6.539-1.246,6.539-3.529c0-1.91-2.035-3.966-4.816-4.588Z" transform="translate(-18.5 -12)" fill="#a1a1a2"/>
        </g>
        <g id="Komponente_3_157" data-name="Komponente 3 – 157" transform="translate(15589.042 636.024)" opacity="0.5">
          <rect id="Rechteck_10-8" data-name="Rechteck 10" width="22.01" height="15.238" rx="2" fill="#a1a1a2"/>
          <path id="Polygon_1-8" data-name="Polygon 1" d="M4.233,0,8.465,6.772H0Z" transform="translate(15.238 20.317) rotate(180)" fill="#a1a1a2"/>
        </g>
        <g id="np_user_418550_000000-49" data-name="np_user_418550_000000" transform="translate(15005.749 658.77)" opacity="0.5">
          <path id="np_user_418550_000000-50" data-name="np_user_418550_000000" d="M26.763,19.66a5.462,5.462,0,0,0,1.91-4.131A3.381,3.381,0,0,0,25.04,12a3.381,3.381,0,0,0-3.633,3.529,5.426,5.426,0,0,0,1.91,4.131c-2.781.623-4.816,2.678-4.816,4.588,0,2.284,2.928,3.529,6.539,3.529s6.539-1.246,6.539-3.529c0-1.91-2.035-3.966-4.816-4.588Z" transform="translate(-18.5 -12)" fill="#a1a1a2"/>
        </g>
        <g id="Komponente_3_159" data-name="Komponente 3 – 159" transform="translate(15027.146 655.377)" opacity="0.5">
          <rect id="Rechteck_10-9" data-name="Rechteck 10" width="22.01" height="15.238" rx="2" fill="#a1a1a2"/>
          <path id="Polygon_1-9" data-name="Polygon 1" d="M4.233,0,8.465,6.772H0Z" transform="translate(15.238 20.317) rotate(180)" fill="#a1a1a2"/>
        </g>
      </g>
      <g id="Gruppe_25" data-name="Gruppe 25" transform="translate(-15049 203)">
        <g id="np_user_418550_000000-51" data-name="np_user_418550_000000" transform="translate(15110.816 659.441)" opacity="0.5">
          <path id="np_user_418550_000000-52" data-name="np_user_418550_000000" d="M26.763,19.66a5.462,5.462,0,0,0,1.91-4.131A3.381,3.381,0,0,0,25.04,12a3.381,3.381,0,0,0-3.633,3.529,5.426,5.426,0,0,0,1.91,4.131c-2.781.623-4.816,2.678-4.816,4.588,0,2.284,2.928,3.529,6.539,3.529s6.539-1.246,6.539-3.529c0-1.91-2.035-3.966-4.816-4.588Z" transform="translate(-18.5 -12)" fill="#a1a1a2"/>
        </g>
        <g id="np_user_418550_000000-53" data-name="np_user_418550_000000" transform="translate(15176.75 667.093)" opacity="0.5">
          <path id="np_user_418550_000000-54" data-name="np_user_418550_000000" d="M26.763,19.66a5.462,5.462,0,0,0,1.91-4.131A3.381,3.381,0,0,0,25.04,12a3.381,3.381,0,0,0-3.633,3.529,5.426,5.426,0,0,0,1.91,4.131c-2.781.623-4.816,2.678-4.816,4.588,0,2.284,2.928,3.529,6.539,3.529s6.539-1.246,6.539-3.529c0-1.91-2.035-3.966-4.816-4.588Z" transform="translate(-18.5 -12)" fill="#a1a1a2"/>
        </g>
        <g id="np_user_418550_000000-55" data-name="np_user_418550_000000" transform="translate(15280.115 618.32)" opacity="0.5">
          <path id="np_user_418550_000000-56" data-name="np_user_418550_000000" d="M26.763,19.66a5.462,5.462,0,0,0,1.91-4.131A3.381,3.381,0,0,0,25.04,12a3.381,3.381,0,0,0-3.633,3.529,5.426,5.426,0,0,0,1.91,4.131c-2.781.623-4.816,2.678-4.816,4.588,0,2.284,2.928,3.529,6.539,3.529s6.539-1.246,6.539-3.529c0-1.91-2.035-3.966-4.816-4.588Z" transform="translate(-18.5 -12)" fill="#a1a1a2"/>
        </g>
        <g id="np_plus_1735320_000000-29" data-name="np_plus_1735320_000000" transform="translate(15066.271 620.831)" opacity="0.5">
          <path id="np_plus_1735320_000000-30" data-name="np_plus_1735320_000000" d="M8.385,0A8.385,8.385,0,1,1,0,8.385,8.385,8.385,0,0,1,8.385,0Zm.977,7.408V3.8a.977.977,0,0,0-1.953,0V7.408H3.8a.977.977,0,0,0,0,1.953H7.408v3.613a.977.977,0,0,0,1.953,0V9.362h3.613a.977.977,0,1,0,0-1.953Z" fill="#a1a1a2"/>
        </g>
        <g id="np_plus_1735320_000000-31" data-name="np_plus_1735320_000000" transform="translate(15139.155 629.656)" opacity="0.5">
          <path id="np_plus_1735320_000000-32" data-name="np_plus_1735320_000000" d="M8.385,0A8.385,8.385,0,1,1,0,8.385,8.385,8.385,0,0,1,8.385,0Zm.977,7.408V3.8a.977.977,0,0,0-1.953,0V7.408H3.8a.977.977,0,0,0,0,1.953H7.408v3.613a.977.977,0,0,0,1.953,0V9.362h3.613a.977.977,0,1,0,0-1.953Z" fill="#a1a1a2"/>
        </g>
        <g id="np_plus_1735320_000000-33" data-name="np_plus_1735320_000000" transform="translate(15253.18 666.109)" opacity="0.5">
          <path id="np_plus_1735320_000000-34" data-name="np_plus_1735320_000000" d="M8.385,0A8.385,8.385,0,1,1,0,8.385,8.385,8.385,0,0,1,8.385,0Zm.977,7.408V3.8a.977.977,0,0,0-1.953,0V7.408H3.8a.977.977,0,0,0,0,1.953H7.408v3.613a.977.977,0,0,0,1.953,0V9.362h3.613a.977.977,0,1,0,0-1.953Z" fill="#a1a1a2"/>
        </g>
        <g id="Komponente_3_160" data-name="Komponente 3 – 160" transform="translate(15201.563 626.595)" opacity="0.5">
          <rect id="Rechteck_10-10" data-name="Rechteck 10" width="22.01" height="15.238" rx="2" fill="#a1a1a2"/>
          <path id="Polygon_1-10" data-name="Polygon 1" d="M4.233,0,8.465,6.772H0Z" transform="translate(15.238 20.317) rotate(180)" fill="#a1a1a2"/>
        </g>
        <g id="np_user_418550_000000-57" data-name="np_user_418550_000000" transform="translate(15277.967 688.223)" opacity="0.5">
          <path id="np_user_418550_000000-58" data-name="np_user_418550_000000" d="M26.763,19.66a5.462,5.462,0,0,0,1.91-4.131A3.381,3.381,0,0,0,25.04,12a3.381,3.381,0,0,0-3.633,3.529,5.426,5.426,0,0,0,1.91,4.131c-2.781.623-4.816,2.678-4.816,4.588,0,2.284,2.928,3.529,6.539,3.529s6.539-1.246,6.539-3.529c0-1.91-2.035-3.966-4.816-4.588Z" transform="translate(-18.5 -12)" fill="#a1a1a2"/>
        </g>
        <g id="np_user_418550_000000-59" data-name="np_user_418550_000000" transform="translate(15109.823 695.876)" opacity="0.5">
          <path id="np_user_418550_000000-60" data-name="np_user_418550_000000" d="M26.763,19.66a5.462,5.462,0,0,0,1.91-4.131A3.381,3.381,0,0,0,25.04,12a3.381,3.381,0,0,0-3.633,3.529,5.426,5.426,0,0,0,1.91,4.131c-2.781.623-4.816,2.678-4.816,4.588,0,2.284,2.928,3.529,6.539,3.529s6.539-1.246,6.539-3.529c0-1.91-2.035-3.966-4.816-4.588Z" transform="translate(-18.5 -12)" fill="#a1a1a2"/>
        </g>
        <g id="np_plus_1735320_000000-35" data-name="np_plus_1735320_000000" transform="translate(15198.982 658.438)" opacity="0.5">
          <path id="np_plus_1735320_000000-36" data-name="np_plus_1735320_000000" d="M8.385,0A8.385,8.385,0,1,1,0,8.385,8.385,8.385,0,0,1,8.385,0Zm.977,7.408V3.8a.977.977,0,0,0-1.953,0V7.408H3.8a.977.977,0,0,0,0,1.953H7.408v3.613a.977.977,0,0,0,1.953,0V9.362h3.613a.977.977,0,1,0,0-1.953Z" fill="#a1a1a2"/>
        </g>
        <g id="np_plus_1735320_000000-37" data-name="np_plus_1735320_000000" transform="translate(15386.286 649.613)" opacity="0.5">
          <path id="np_plus_1735320_000000-38" data-name="np_plus_1735320_000000" d="M8.385,0A8.385,8.385,0,1,1,0,8.385,8.385,8.385,0,0,1,8.385,0Zm.977,7.408V3.8a.977.977,0,0,0-1.953,0V7.408H3.8a.977.977,0,0,0,0,1.953H7.408v3.613a.977.977,0,0,0,1.953,0V9.362h3.613a.977.977,0,1,0,0-1.953Z" fill="#a1a1a2"/>
        </g>
        <g id="Gruppe_23" data-name="Gruppe 23" transform="translate(15336.775 620.947)" opacity="0.5">
          <g id="np_user_418550_000000-61" data-name="np_user_418550_000000" transform="translate(144.324 7.66)">
            <path id="np_user_418550_000000-62" data-name="np_user_418550_000000" d="M26.763,19.66a5.462,5.462,0,0,0,1.91-4.131A3.381,3.381,0,0,0,25.04,12a3.381,3.381,0,0,0-3.633,3.529,5.426,5.426,0,0,0,1.91,4.131c-2.781.623-4.816,2.678-4.816,4.588,0,2.284,2.928,3.529,6.539,3.529s6.539-1.246,6.539-3.529c0-1.91-2.035-3.966-4.816-4.588Z" transform="translate(-18.5 -12)" fill="#a1a1a2"/>
          </g>
          <g id="np_user_418550_000000-63" data-name="np_user_418550_000000" transform="translate(220.158 0.008)">
            <path id="np_user_418550_000000-64" data-name="np_user_418550_000000" d="M26.763,19.66a5.462,5.462,0,0,0,1.91-4.131A3.381,3.381,0,0,0,25.04,12a3.381,3.381,0,0,0-3.633,3.529,5.426,5.426,0,0,0,1.91,4.131c-2.781.623-4.816,2.678-4.816,4.588,0,2.284,2.928,3.529,6.539,3.529s6.539-1.246,6.539-3.529c0-1.91-2.035-3.966-4.816-4.588Z" transform="translate(-18.5 -12)" fill="#a1a1a2"/>
          </g>
          <g id="np_plus_1735320_000000-39" data-name="np_plus_1735320_000000" transform="translate(93.244 58.601)">
            <path id="np_plus_1735320_000000-40" data-name="np_plus_1735320_000000" d="M8.385,0A8.385,8.385,0,1,1,0,8.385,8.385,8.385,0,0,1,8.385,0Zm.977,7.408V3.8a.977.977,0,0,0-1.953,0V7.408H3.8a.977.977,0,0,0,0,1.953H7.408v3.613a.977.977,0,0,0,1.953,0V9.362h3.613a.977.977,0,1,0,0-1.953Z" fill="#a1a1a2"/>
          </g>
          <g id="np_plus_1735320_000000-41" data-name="np_plus_1735320_000000" transform="translate(177.21 47.179)">
            <path id="np_plus_1735320_000000-42" data-name="np_plus_1735320_000000" d="M8.385,0A8.385,8.385,0,1,1,0,8.385,8.385,8.385,0,0,1,8.385,0Zm.977,7.408V3.8a.977.977,0,0,0-1.953,0V7.408H3.8a.977.977,0,0,0,0,1.953H7.408v3.613a.977.977,0,0,0,1.953,0V9.362h3.613a.977.977,0,1,0,0-1.953Z" fill="#a1a1a2"/>
          </g>
          <g id="np_user_418550_000000-65" data-name="np_user_418550_000000" transform="translate(20.414 8.332)">
            <path id="np_user_418550_000000-66" data-name="np_user_418550_000000" d="M26.763,19.66a5.462,5.462,0,0,0,1.91-4.131A3.381,3.381,0,0,0,25.04,12a3.381,3.381,0,0,0-3.633,3.529,5.426,5.426,0,0,0,1.91,4.131c-2.781.623-4.816,2.678-4.816,4.588,0,2.284,2.928,3.529,6.539,3.529s6.539-1.246,6.539-3.529c0-1.91-2.035-3.966-4.816-4.588Z" transform="translate(-18.5 -12)" fill="#a1a1a2"/>
          </g>
          <g id="Komponente_3_161" data-name="Komponente 3 – 161" transform="translate(0 72.642)">
            <rect id="Rechteck_10-11" data-name="Rechteck 10" width="22.01" height="15.238" rx="2" fill="#a1a1a2"/>
            <path id="Polygon_1-11" data-name="Polygon 1" d="M4.233,0,8.465,6.772H0Z" transform="translate(15.238 20.317) rotate(180)" fill="#a1a1a2"/>
          </g>
          <g id="np_user_418550_000000-67" data-name="np_user_418550_000000" transform="translate(339.043 66.102)">
            <path id="np_user_418550_000000-68" data-name="np_user_418550_000000" d="M26.763,19.66a5.462,5.462,0,0,0,1.91-4.131A3.381,3.381,0,0,0,25.04,12a3.381,3.381,0,0,0-3.633,3.529,5.426,5.426,0,0,0,1.91,4.131c-2.781.623-4.816,2.678-4.816,4.588,0,2.284,2.928,3.529,6.539,3.529s6.539-1.246,6.539-3.529c0-1.91-2.035-3.966-4.816-4.588Z" transform="translate(-18.5 -12)" fill="#a1a1a2"/>
          </g>
          <g id="np_plus_1735320_000000-43" data-name="np_plus_1735320_000000" transform="translate(312.108)">
            <path id="np_plus_1735320_000000-44" data-name="np_plus_1735320_000000" d="M8.385,0A8.385,8.385,0,1,1,0,8.385,8.385,8.385,0,0,1,8.385,0Zm.977,7.408V3.8a.977.977,0,0,0-1.953,0V7.408H3.8a.977.977,0,0,0,0,1.953H7.408v3.613a.977.977,0,0,0,1.953,0V9.362h3.613a.977.977,0,1,0,0-1.953Z" fill="#a1a1a2"/>
          </g>
        </g>
        <g id="np_user_418550_000000-69" data-name="np_user_418550_000000" transform="translate(14846.224 647.102)" opacity="0.5">
          <path id="np_user_418550_000000-70" data-name="np_user_418550_000000" d="M26.763,19.66a5.462,5.462,0,0,0,1.91-4.131A3.381,3.381,0,0,0,25.04,12a3.381,3.381,0,0,0-3.633,3.529,5.426,5.426,0,0,0,1.91,4.131c-2.781.623-4.816,2.678-4.816,4.588,0,2.284,2.928,3.529,6.539,3.529s6.539-1.246,6.539-3.529c0-1.91-2.035-3.966-4.816-4.588Z" transform="translate(-18.5 -12)" fill="#a1a1a2"/>
        </g>
        <g id="np_plus_1735320_000000-45" data-name="np_plus_1735320_000000" transform="translate(14869.467 694.891)" opacity="0.5">
          <path id="np_plus_1735320_000000-46" data-name="np_plus_1735320_000000" d="M8.385,0A8.385,8.385,0,1,1,0,8.385,8.385,8.385,0,0,1,8.385,0Zm.977,7.408V3.8a.977.977,0,0,0-1.953,0V7.408H3.8a.977.977,0,0,0,0,1.953H7.408v3.613a.977.977,0,0,0,1.953,0V9.362h3.613a.977.977,0,1,0,0-1.953Z" fill="#a1a1a2"/>
        </g>
        <g id="np_user_418550_000000-71" data-name="np_user_418550_000000" transform="translate(15577.56 687.552)" opacity="0.5">
          <path id="np_user_418550_000000-72" data-name="np_user_418550_000000" d="M26.763,19.66a5.462,5.462,0,0,0,1.91-4.131A3.381,3.381,0,0,0,25.04,12a3.381,3.381,0,0,0-3.633,3.529,5.426,5.426,0,0,0,1.91,4.131c-2.781.623-4.816,2.678-4.816,4.588,0,2.284,2.928,3.529,6.539,3.529s6.539-1.246,6.539-3.529c0-1.91-2.035-3.966-4.816-4.588Z" transform="translate(-18.5 -12)" fill="#a1a1a2"/>
        </g>
        <g id="Komponente_3_162" data-name="Komponente 3 – 162" transform="translate(15589.042 636.024)" opacity="0.5">
          <rect id="Rechteck_10-12" data-name="Rechteck 10" width="22.01" height="15.238" rx="2" fill="#a1a1a2"/>
          <path id="Polygon_1-12" data-name="Polygon 1" d="M4.233,0,8.465,6.772H0Z" transform="translate(15.238 20.317) rotate(180)" fill="#a1a1a2"/>
        </g>
        <g id="np_user_418550_000000-73" data-name="np_user_418550_000000" transform="translate(15005.749 658.77)" opacity="0.5">
          <path id="np_user_418550_000000-74" data-name="np_user_418550_000000" d="M26.763,19.66a5.462,5.462,0,0,0,1.91-4.131A3.381,3.381,0,0,0,25.04,12a3.381,3.381,0,0,0-3.633,3.529,5.426,5.426,0,0,0,1.91,4.131c-2.781.623-4.816,2.678-4.816,4.588,0,2.284,2.928,3.529,6.539,3.529s6.539-1.246,6.539-3.529c0-1.91-2.035-3.966-4.816-4.588Z" transform="translate(-18.5 -12)" fill="#a1a1a2"/>
        </g>
        <g id="Komponente_3_163" data-name="Komponente 3 – 163" transform="translate(14985.335 607.242)" opacity="0.5">
          <rect id="Rechteck_10-13" data-name="Rechteck 10" width="22.01" height="15.238" rx="2" fill="#a1a1a2"/>
          <path id="Polygon_1-13" data-name="Polygon 1" d="M4.233,0,8.465,6.772H0Z" transform="translate(15.238 20.317) rotate(180)" fill="#a1a1a2"/>
        </g>
        <g id="Komponente_3_164" data-name="Komponente 3 – 164" transform="translate(15027.146 655.377)" opacity="0.5">
          <rect id="Rechteck_10-14" data-name="Rechteck 10" width="22.01" height="15.238" rx="2" fill="#a1a1a2"/>
          <path id="Polygon_1-14" data-name="Polygon 1" d="M4.233,0,8.465,6.772H0Z" transform="translate(15.238 20.317) rotate(180)" fill="#a1a1a2"/>
        </g>
      </g>
    </g>
  </g>
</svg>
